<?xml version="1.0" encoding="UTF-8"?><svg id="Layer_2" xmlns="http://www.w3.org/2000/svg" xmlns:xlink="http://www.w3.org/1999/xlink" viewBox="0 0 329.05 150.21"><defs><style>.cls-1,.cls-2,.cls-3{fill:none;}.cls-2{stroke:#8e8e8e;stroke-width:.5px;}.cls-2,.cls-3{stroke-miterlimit:10;}.cls-3{stroke:#adadad;stroke-width:.25px;}.cls-4{clip-path:url(#clippath);}.cls-5{opacity:.22;}</style><clipPath id="clippath"><path class="cls-1" d="M322.03,55.1c0-3.81,3.09-6.89,6.89-6.89V4.57c0-2.45-1.45-4.45-3.24-4.45H3.37C1.58.12.12,2.12.12,4.57v43.64c3.81,0,6.89,3.09,6.89,6.89s-3.09,6.89-6.89,6.89v83.65c0,2.45,1.45,4.44,3.24,4.44h322.31c1.79,0,3.24-1.99,3.24-4.44V61.99c-3.81,0-6.89-3.09-6.89-6.89Z"/></clipPath></defs><g id="Layer_1-2"><g class="cls-4"><image width="1672" height="941" transform="translate(-15.98 -36.59) scale(.22)" xlink:href="../../../바다.png"/></g><path class="cls-5" d="M322.03,55.1c0-3.81,3.09-6.89,6.89-6.89V4.57c0-2.45-1.45-4.45-3.24-4.45H3.37C1.58.12.12,2.12.12,4.57v43.64c3.81,0,6.89,3.09,6.89,6.89s-3.09,6.89-6.89,6.89v83.65c0,2.45,1.45,4.44,3.24,4.44h322.31c1.79,0,3.24-1.99,3.24-4.44V61.99c-3.81,0-6.89-3.09-6.89-6.89Z"/><path class="cls-3" d="M322.03,55.1c0-3.81,3.09-6.89,6.89-6.89V4.57c0-2.45-1.45-4.45-3.24-4.45H3.37C1.58.12.12,2.12.12,4.57v43.64c3.81,0,6.89,3.09,6.89,6.89s-3.09,6.89-6.89,6.89v83.65c0,2.45,1.45,4.44,3.24,4.44h322.31c1.79,0,3.24-1.99,3.24-4.44V61.99c-3.81,0-6.89-3.09-6.89-6.89Z"/><line class="cls-2" x1="15.81" y1="126.65" x2="319.02" y2="126.65"/></g></svg>