<?xml version="1.0" encoding="UTF-8"?><svg id="Layer_2" xmlns="http://www.w3.org/2000/svg" viewBox="0 0 31.48 27.88"><defs><style>.cls-1{fill:#4f4b43;}</style></defs><g id="Layer_2-2"><path class="cls-1" d="M25.81,9.18c-.45-5.14-4.79-9.18-10.07-9.18S6.12,4.05,5.67,9.18C2.24,9.25.31,11.06.02,14.52c-.39,4.77,4.02,6.53,6.41,6.79l1.01.11v-11.35C7.44,5.51,11.16,1.81,15.74,1.81s8.3,3.7,8.3,8.25v10.25c-.07.33-.58,2.55-2.18,3.52-.77.47-1.72.55-2.8.3-.37-1.3-1.69-2.26-3.27-2.26-1.87,0-3.38,1.35-3.38,3.01s1.52,3.01,3.38,3.01c1.43,0,2.65-.8,3.14-1.91.42.08.83.13,1.23.13.97,0,1.85-.24,2.65-.73,1.8-1.1,2.58-3.13,2.88-4.17,2.45-.48,6.13-2.32,5.77-6.69-.28-3.46-2.19-5.24-5.64-5.33ZM5.62,19.3c-1.48-.41-4.04-1.57-3.79-4.63.25-3.04,1.92-3.64,3.79-3.68v8.32ZM15.79,26.07c-.85,0-1.57-.55-1.57-1.19s.72-1.19,1.57-1.19,1.57.55,1.57,1.19-.72,1.19-1.57,1.19ZM25.86,19.3v-8.32c1.87.05,3.54.64,3.79,3.68.25,3.07-2.31,4.22-3.79,4.63Z"/></g></svg>